<svg id="Layer_1" data-name="Layer 1" xmlns="http://www.w3.org/2000/svg" viewBox="0 0 595 719">
  <defs>
    <style>
      .cls-1, .cls-2, .cls-3 {
        fill: none;
        stroke: #000;
        stroke-miterlimit: 10;
      }

      .cls-1 {
        stroke-width: 3px;
      }

      .cls-2 {
        stroke-width: 2px;
      }

      .cls-3 {
        stroke-width: 0.75px;
      }
    </style>
  </defs>
  <title>Artboard 2</title>
  <path class="cls-1" d="M463.55,285.69a184,184,0,1,1-328.34-9.4"/>
  <g>
    <path d="M149.55,252.53c.61-.65,1-1.51,1.66-2.16l.14-.15c1.15-1.24,1.65-2.27.8-3.06s-1.5-1.29-2.22-2c-.54-.5-1-1.06-1.55-1.56l-.72-.67c-1.23-1.14-2.29-2.52-3.58-3.72-2.17-2-4.28-4-6.44-6.06l-.16-.15c-1.22-1.14.79-2.86,2.08-4.25s9.28,6.55,9.65,6.85c4.71,4.39,9.46,8.87,13.55,13.18.35.38.69.7,1.07,1.05l1.1,1c.81.76,1.58,1.58,2.39,2.34l1.7,1.58c2.29,2.14,2.52,2.08-.21,5.83-.55.59-.73.59-1.68,0l-5.44-4.74c-.51-.47-1-1-1.49-1.44-1.25-1.17-2.09-2.34-3.45-.9s-3.4,3.35-2.21,4.46c.22.2.43.35.65.56l.88.82c1.07,1,2.34,1.84,3.4,2.83s2.45,1.85,1.65,3-1.21,2.68-2.07,3.6-4.08-2.48-4.59-3c-1.69-1.58-3.13-3.31-4.83-4.9-.85-.79-1.81-1.58-2.69-2.4-.5-.47-.95-1-1.45-1.46s-.85-.73-1.26-1.11c-1.13-1.06-2.23-2.14-3.36-3.2l-2-1.9c-2.33-2.17-9.43-7.9-8.73-9.47a7.11,7.11,0,0,1,1.29-1.89c.74-.79,1.4-1.56,2.16-.86s1.67,1.23,2.39,1.9c.57.53,1.05,1.2,1.62,1.73,3.2,3,6.52,5.92,9.72,8.9.35.33.7.71,1,1a5.91,5.91,0,0,0,.63.53A.79.79,0,0,0,149.55,252.53Z"/>
    <path d="M181.5,225.09c2.95,3.29,7.71,8.28,7.65,11.1,0,3-2.12,5.34-4.05,7.07-4.72,4.23-9,1.4-13.16-3.24-.49-.55-.85-1.21-1.34-1.76-.89-1-2-1.94-3-3-.84-.94-1.61-1.94-2.42-2.86-.59-.65-1.22-1.25-1.81-1.9-3.18-3.55-7.82-8.36-4.84-12.54a16.94,16.94,0,0,1,2.52-2.69c2.45-2.19,5.51-4.13,9-1.42a105.78,105.78,0,0,1,10.26,10ZM182,239.4c3.49-3.13.54-5.27-3.29-9.7-.09-.1-.19-.16-.26-.23-2.25-2.73-4.64-5.39-7-8-.51-.57-1.1-1.08-1.62-1.65-.21-.24-.41-.57-.65-.83-1.38-1.54-3.13-2.92-5-1.29-3,2.67-.17,5,5.16,10.94.58.66,1.32,1.17,1.91,1.82,1.35,1.51,2.38,3.55,3.62,4.93.37.42.77.76,1.13,1.15s.64.88,1,1.27C178.4,239.3,180.37,240.87,182,239.4Z"/>
    <path d="M193.85,212.64c-1.58-2.23-2.79-4.59-4.35-6.79-1-1.43-2.39-3.67-3.49-4.43a2.19,2.19,0,0,1-.47-.49c-.38-.54-.91-1.41-.17-1.93,1.2-.85,3.44-3,4.09-2,1.21,1.58,2.43,2.94,3.47,4.4.44.63.84,1.25,1.26,1.85s.84,1.12,1.25,1.69c1.7,2.4,3.08,5.19,4.64,7.39.25.34.6.61.83.92s.51,1,.81,1.4c1.4,2,3.05,3.93,4.66,6,.5.71.77.73,1.29.37.91-.65,1.79-1.36,2.7-2s2.48,1.62,3.33,2.82c.32.63.42.95-.12,1.34s-1,.55-1.51.89a1.69,1.69,0,0,1-.32.28c-.74.52-1.57.81-2.28,1.32-.29.2-.58.45-.9.67-3.25,1.41-1,3.87-9.4-6.59-.77-1.08-1.73-2.08-2.5-3.16l-1.94-2.74C194.44,213.42,194.13,213,193.85,212.64Z"/>
    <path d="M232.63,194.42a125.4,125.4,0,0,1,6.49,13.69c.23.62.18,1-.34,1.25-1.65.92-2.65,1.87-3.58.18-.36-.64-.64-1.36-1-2-.71-1.06-1.36-2.15-2-3.27l-.9-1.61-.58-1c-.55-1-1-2-1.56-3-.47-.84-.75-1.13-1.3-.82-2,1.11-4.58,2.28-3.88,3.53,1.78,3,3.48,6,5.39,8.83.41.52,1,.86,1.32,1.43.69,1.25.65,1.67-.36,2.23-1.47.82-3.45,2.1-4.1.91-.85-1.51-1.81-3-2.64-4.44-.49-.88-.82-1.84-1.31-2.72s-1.09-1.82-1.6-2.73c-1.36-2.6-2.82-5.23-4.21-7.86-.39-.7-.8-1.36-1.19-2.07s-.8-1.72-1.25-2.53c-.22-.4-.51-.77-.73-1.18-2.2-3.94-5.1-9.08.16-12,4.62-2.57,9.37-2.39,12.84,3.85,1.16,2.09,2.34,4.13,3.42,6.22C230.7,191,231.69,192.73,232.63,194.42ZM217.28,182.3c-3.16,1.75-1.62,4.29,1.23,9.42.21.37.51.77.78,1.24s.56,1.24.86,1.78.63.48,1,.26c.76-.42,1.5-1,2.3-1.41.49-.27,1-.49,1.39-.73,1.26-.7-.33-2.55-1-3.83-.4-.79-.79-1.64-1.15-2.36C221.32,184.24,219.75,180.92,217.28,182.3Z"/>
    <path d="M330.94,181.85c1.27-2.86,2.13-5.95,3.29-8.91.2-.51.41-.74.8-.67,1.21.31,2.58.69,3.67.9.91.17,1.9.2,2.81.37,1.55.3.22,8.51.15,9.56a99.37,99.37,0,0,1-1.75,11.7c-.65,3.41-1.42,6.75-2.06,10.12-.34,1.78-.58,3.62-.93,5.43-.19,1-.48,2.18-1.45,2-.77-.15-1.46-.75-2.33-.91-.68-.13-1.14-.38-.89-1.66.48-3.4,1-6.95,1.61-10.24.28-1.48.66-3,.95-4.45.15-.8.23-1.6.39-2.43l.41-2.16c.38-2,1.28-6.58.81-7.42-1.16,1.35-2,4.53-2.52,5.68-1.19,2.56-2.56,8.53-4.24,8.41a42.17,42.17,0,0,1-5.38-.87c-.56-.26-.12-3.59-.09-5.35a73.87,73.87,0,0,0-.62-12.39,1.51,1.51,0,0,0-.17-.34,4.87,4.87,0,0,0-.54,1.78c-.36,1.89-.57,4.08-.92,5.9-.69,3.63-1.64,7.22-2.32,10.81-.17.87-.24,1.76-.4,2.63-.2,1-.49,2.06-.69,3.09s-.37,2.28-.51,3.39c-.14.72-.36,1.38-1.17,1.23-1.1-.21-2.13.14-3.23-.07s-.31-2.57-.08-3.78c.52-2.76,1.39-5.38,1.91-8.14l.16-.84c.14-.71.3-1.39.43-2.07.39-2,.45-3.8.82-5.73l.08-.45c.44-2.27.76-4.87,1.22-7.3.79-4.12,1.18-8.67,3.7-8.55a31.2,31.2,0,0,1,3.74.4c1.42.27,1.74.17,1.83,3.76.17,4,.55,8.18,1.11,12.09a.87.87,0,0,0,.28.6C329.54,186.72,330.54,182.71,330.94,181.85Z"/>
    <path d="M354.62,197.64c1.07-2.3,2.28-4.5,3.35-6.8a6.88,6.88,0,0,1,.32-.74c2.48-5.34,5.38-11,11.37-8.2,2.29,1.07,4.13,3,6.53,4.1l.76.35c1.2.56,1.22,1.12-.27,4.33-.22.4-.47.41-.75.28-.72-.33-1.27-.88-2-1.24s-1.14-.35-1.54.52c-.49,1-.88,2.09-1.37,3.14-.66,1.42-1.35,2.84-2,4.31-.89,1.91-1.5,2,2.15,3.71.53.25.51.49.15,1.26-1.78,3.37-1.24,4-5.5,2.7-1-.16-4.06,7.4-4.77,8.93-.57,1.22.46,1.41,1.1,1.7a22.34,22.34,0,0,1,2.61.79c.69.32,0,1.52-.67,2.91a9.27,9.27,0,0,0-.44.82,3.71,3.71,0,0,0-.21.58c-.39.83-.82,1.1-1.36.85-.74-.34-1.49-.73-2.22-1.08l-.49-.22-.71-.34c-1.15-.53-2.61-.66-3.71-1.17-.76-.35.37-2.58,1-3.91.92-2,2.18-4.16,3-6l.19-.42c.68-1.47,1.53-2.89,2.23-4.39.26-.77-2.11-1.75-3.08-2.2-.71-.33-.86,0-1.29.93-.64,1.36-1.19,2.75-1.86,4.05-.44.9-.92,1.78-1.34,2.69-.82,1.82-1.61,3.66-2.45,5.47-.45,1-.82,1.49-1.39,1.26-.75-.26-1.48-.56-2.23-.82-1.07-.5.3-2.7,1.28-5.68,1-2.06,1.73-4.33,2.67-6.35.28-.59,2.08-4.46,2.21-4.4C354.13,198.77,354.37,198.2,354.62,197.64Zm14.49-9.29c.16-.4.07-.61-.29-.78-2.28-.89-3.56-2.41-6.3,3.48-.85,1.64-1.64,3.26-2.43,5-.26.56-.16.74.23.91,2,.92,4,1.07,4.38.3,1.27-2.72,2.63-5.39,4-8.13A3.73,3.73,0,0,0,369.11,188.35Z"/>
    <path d="M380.14,223.37c-1.53,1.43-4.28,4.16-5.08,3.65-1.3-.83-2.33-1.66-1.69-2.66a22.84,22.84,0,0,1,3.41-3.4c3.21-3.58,7.08-6.1,9.67-8.21a18.35,18.35,0,0,0,2.39-1.87c.68-1.07,1.89-6,2.18-6.95,1-3,1.93-6,2.89-9a6.54,6.54,0,0,1,.52-1.49c.32-.51,2.5.47,3.13.87,1.74,1.11-3.62,12-2.79,12.5.58.37,5.64-4.16,5.77-4.3,1.25-1.29,3.74-3.74,4.54-3.22s1.49.9,2.23,1.37a.76.76,0,0,1,.33,1.07,13.23,13.23,0,0,1-2.65,2.57c-4.14,3.26-8.16,6.4-12,9.37a1.93,1.93,0,0,0-.48.51c-.86,1.36-1.17,4.29-1.62,5.77-.86,2.76-1.75,5.32-2.78,7.84-.74,1.84-1.07,4.66-2.05,6.21-.54.84-3.53-.93-4.33-1.44s1-5.51,1.39-6.64c.77-2.41,2.24-5,2.67-7.41C384.69,218.43,381.63,222,380.14,223.37Z"/>
    <path d="M398.84,234c.85-1,2-2,2.8-3,.42-.5.78-1.11,1.21-1.64.8-1,1.79-1.88,2.59-2.86.43-.54.86-1.18,1.3-1.72,1.51-1.85,3.06-3.61,4.57-5.46,1.26-1.55,2.31-3.28,3.55-4.8,1.57-1.94,3.1-4.42,4.68-3.14.61.49,1.24.95,1.87,1.47.81.66-.38,1.92-1.14,2.84-.19.24-.44.44-.63.68-.61.74-1.13,1.61-1.74,2.35-.75.93-1.58,1.79-2.31,2.69s-1.31,1.66-1.94,2.44c-.85,1-1.88,1.94-2.65,3-3.16,3.88-6.13,7.86-8.68,11.65-.69,1-1.54,2-2.32,3-1.31,1.61-3.32-.22-4.05-.71a8.74,8.74,0,0,1-.71-.53c-.87-.81,1.22-3.22,2.24-4.48l.29-.36C398.16,234.84,398.48,234.4,398.84,234Z"/>
    <path d="M427.73,235.82c-1.12,1.07-1.92,2.58-3.13,3.73-1.9,1.82-3.93,3.39-5.81,5.18-1.4,1.34-3.19,3.32-1.67,5,1.32,1.38,3,2.33,4.76.61,1-.93,1.71-2.47,2.77-3.48.65-.62,1.23-.12,2.23.93.82.85,2.22,2.09,1.34,3.14a36.39,36.39,0,0,1-3.09,3.38c-2.49,2.38-6.48,4-9.26,1.51-.63-.66-1.54-1.16-2.22-1.88-3.69-3.86-6.33-6.4,2.8-15.12a9.32,9.32,0,0,0,.75-.66c.47-.46.95-1,1.43-1.42s1.11-.91,1.59-1.42c2.49-2.54,4.71-4.92,7.12-7.22,3-2.86,8.59-9,13.81-3.59a28.86,28.86,0,0,1,3.23,4.45c.74.77,1.14,3.49.93,4.44-.68,2.54-3.95,5.56-5.57,7.11s-3.14-.64-4.37-1.94c-.66-.8-.08-1.19.79-2a8.17,8.17,0,0,0,.7-.62c1.93-1.84,4-3.77,1.84-6-2.4-2.51-3.39-1-6.69,1.91l0,0C430.61,233.23,428.91,234.7,427.73,235.82Z"/>
    <path d="M448.73,268.88c-1.76,1.26-3.45,2.68-5.21,3.93-2.63,1.88-5.46,4.32-8.27,2.71a13.09,13.09,0,0,1-4.75-4.22c-3.33-4.67-.65-7.27,6.51-13.36a29.63,29.63,0,0,1,2.92-2.69c1.73-1.23,3.63-2.37,5.36-3.6,1-.72,2-1.45,2.94-2.23,3.93-2.8,8.34-6.33,12.46-.54l.09.11c.59.83,1.34,1.58,1.93,2.41,3.37,4.73-1.35,8.13-8.49,13.7l0,0C452.38,266.37,450.55,267.59,448.73,268.88Zm-3.62-3.48c3.56-2.71,7.08-5.47,10.57-8.22,1.3-1.1,3.27-2.8,2.25-4.23-2.25-3.16-3.76-.88-5.95.33-.67.4-1.29.75-1.93,1.2a62.94,62.94,0,0,0-7,5.46l-.18.12c-.52.37-1.12.5-1.67.89-2.77,2-7.73,4.61-5.93,7.15,1.53,2.14,3.18,2.2,5.38.64,1.53-1.09,3-2.25,4.48-3.37Z"/>
  </g>
  <path class="cls-2" d="M268.13,504.86A93.15,93.15,0,0,0,272.24,490c1.57-7.16,1.29-14.6,1-21.94l-.62-15.8a39,39,0,0,0-1.27-10.05c-8.85,2.1-18.47,3.63-27.35,1.72-17.42-3.74-29.06-22.76-29.63-41.29-.22-7.22,1.09-14.86,5.58-20.35s12.77-8,18.61-4.13c4.33,2.88,6.37,8.39,7.13,13.68s.51,10.74,1.61,16c1,4.6,3.11,9.1,6.73,11.92s8.89,3.57,12.7,1.05c5.23-3.46,5.85-11,5.91-17.49.08-9.18.16-18.35.15-27.53q-.06-40.83-2.72-81.6c-.49-7.63-1-15.59,1.8-22.65a24.17,24.17,0,0,1,12-12.88c6.25-2.93,13.39-2.85,20.22-2.29,7.39.6,15.36,2,20.4,7.68,5.39,6.05,5.88,15.11,6,23.37q.43,37.49-1.78,74.92c-.1,1.64-.12,3.5,1,4.67a4.5,4.5,0,0,0,3.5,1.07c5.33-.2,10.11-4.07,12.62-9s3-10.7,2.56-16.24c-.21-2.59-.59-5.38.64-7.65,1.85-3.42,6.75-3.89,10-1.84s5,5.84,6.14,9.58a46.22,46.22,0,0,1-6.88,40.15,42.09,42.09,0,0,1-35.6,16.87l1.75,89.6c.14,6.85.14,13.64-.25,20.48"/>
  <path d="M266.07,318.45a4.18,4.18,0,0,0,.28,1.48,8.44,8.44,0,0,0,2.58,3.15c.7.63,1.63,1.3,2.51.94"/>
  <path d="M267.51,338.76a27.3,27.3,0,0,0,3.16,4.18,3.15,3.15,0,0,0,1.65,1.12"/>
  <path d="M266.94,355a6.69,6.69,0,0,0,6.39,2.44"/>
  <path d="M266,367.74l-1.48,0c.7,1.66,2.64,2.39,4.41,2.71a19.79,19.79,0,0,0,3.68.29"/>
  <path d="M266.31,382.6a9.28,9.28,0,0,1,1.45.79l3.09,1.94a3.7,3.7,0,0,1,1-.89"/>
  <path d="M270.16,307a5.66,5.66,0,0,1-5.47-5.46"/>
  <path d="M269,287.81a1.65,1.65,0,0,1-1.51-.37,4.59,4.59,0,0,1-1-1.28c-.72-1.22-1.39-2.48-2-3.76a3.87,3.87,0,0,1-.54-2.18"/>
  <path d="M271.86,270.81a5,5,0,0,1-2.5-3,13.59,13.59,0,0,1-1-5.16"/>
  <path d="M284.66,259.24q.07-2.94,0-5.9"/>
  <path d="M296.42,256.8a45.28,45.28,0,0,0,.16-6.69.88.88,0,0,0-.24-.69"/>
  <path d="M307.5,257.51a13.39,13.39,0,0,1,2.87-7.06"/>
  <path d="M317.53,259.67a2.9,2.9,0,0,1,.38-2.56,8.63,8.63,0,0,1,1.85-1.92"/>
  <path d="M325.07,264.9a3.75,3.75,0,0,0,2.68-4.5"/>
  <path d="M330.12,276.13a7.83,7.83,0,0,0,4.94-5.22"/>
  <path d="M330.39,290.5a7.21,7.21,0,0,0,4.3-.38,5.79,5.79,0,0,0,1.84-1.78,13.75,13.75,0,0,0,2.24-5.23"/>
  <path d="M330.66,305.4a1.54,1.54,0,0,0,1.11-.48,13.51,13.51,0,0,0,2.26-2.21,4.46,4.46,0,0,0,1-2.94"/>
  <path d="M330.37,315.11a5.4,5.4,0,0,0,4.48-4.85"/>
  <path d="M330.24,328.91a4.69,4.69,0,0,0,2.87-2.24,13.93,13.93,0,0,0,1.34-3.49"/>
  <path d="M329.83,344.1a5.18,5.18,0,0,0,6-3"/>
  <path d="M329.53,361.79a5.36,5.36,0,0,0,1.82-.87l3.24-2.09a1.49,1.49,0,0,0,.58-.53c.29-.54-.1-1.26.21-1.78"/>
  <path d="M290.85,276.31a6.84,6.84,0,0,1-5-4.21,12.61,12.61,0,0,1-.57-6.73"/>
  <path d="M300,287.59a7.07,7.07,0,0,0,4.47-4.18,16,16,0,0,0,1-6.21"/>
  <path d="M318.3,279.12a2,2,0,0,0,1.28-.73,9.41,9.41,0,0,0,2.43-5,16.54,16.54,0,0,0-.07-5.57"/>
  <path d="M287.48,309a10.25,10.25,0,0,1-4.83-6.45"/>
  <path d="M304.37,318.15a5.15,5.15,0,0,1-3.66-3.19,11.53,11.53,0,0,1-.64-5"/>
  <path d="M315.43,302.09a4.08,4.08,0,0,0,4.61-4.6"/>
  <path d="M284.24,336.5a5.49,5.49,0,0,1-3.57-.45,3.48,3.48,0,0,1-1.89-2.94"/>
  <path d="M294.17,359.91a7.61,7.61,0,0,1-8.13-7.82"/>
  <path d="M302.07,340a6.76,6.76,0,0,0,3.92-5.16"/>
  <path d="M318.21,352.42a13.3,13.3,0,0,0,2.53-5.63l.75-2.78"/>
  <path d="M292.46,396.71a8,8,0,0,1-5.68-3.53,22.73,22.73,0,0,1-2.83-6.29"/>
  <path d="M307.94,380.66l1.37-8.15"/>
  <path d="M348.37,335.86A6.22,6.22,0,0,1,345,330"/>
  <path d="M356.73,332.87a18.24,18.24,0,0,0,1.37-5.25"/>
  <path d="M365.26,347.87a3.91,3.91,0,0,0,4.25-3.86"/>
  <path d="M365.05,366.36c.77.4,1.64-.25,2.24-.86,1.89-1.91,3.77-4.12,4-6.8"/>
  <path d="M361.35,379.93a5.54,5.54,0,0,0,2.85,1.91,3.27,3.27,0,0,0,3.19-.88"/>
  <path d="M350.37,392.46a11.07,11.07,0,0,0,4.25,1.51,3.75,3.75,0,0,0,3.75-2"/>
  <path d="M337.73,399.19a4.64,4.64,0,0,0,4.16,4.28"/>
  <path d="M345.75,357.75c-1,.27-1.83-.9-2.14-1.91a13.12,13.12,0,0,1-.48-5.57"/>
  <path d="M354.6,368.21a6,6,0,0,0,5.33-2.67,11.64,11.64,0,0,0,1.86-5.89"/>
  <path d="M342.41,377.26a19.47,19.47,0,0,1,1-8.4l.68-.05"/>
  <path d="M334.67,385.93a5.47,5.47,0,0,0,5,1.14"/>
  <path d="M222.43,381.48a10.63,10.63,0,0,1-1.45-9.34"/>
  <path d="M214,394.52a5.25,5.25,0,0,1-1.47-5.43"/>
  <path d="M210,405.73a6.31,6.31,0,0,0,5.88,4.32"/>
  <path d="M233.29,377.11a5.14,5.14,0,0,0,2.35-5.22"/>
  <path d="M239.85,380a5.84,5.84,0,0,0,2.85-.14,3,3,0,0,0,2-1.94"/>
  <path d="M245.58,390.9a3.26,3.26,0,0,0,3.13.18"/>
  <path d="M249.19,413.68c.66.26,1.35-.3,1.81-.84a14.78,14.78,0,0,0,3.26-7"/>
  <path d="M257.6,421.37a1.78,1.78,0,0,0,1.25-.74,10.69,10.69,0,0,0,2.55-5.57"/>
  <path d="M272.22,401.24c-1.29-.25-2.77.4-3.86-.33a3.59,3.59,0,0,1-1.16-2.6"/>
  <path d="M256.59,422c1.52-.16,2.59-1.54,3.46-2.8"/>
  <path d="M212.05,418.59a13.85,13.85,0,0,0,4,2.5,2.9,2.9,0,0,0,2.47.36"/>
  <path d="M219,430.67c-.06.4.32.71.67.91a7.43,7.43,0,0,0,4.85.81"/>
  <path d="M227.77,440.37a5.78,5.78,0,0,0,8.3,1.7"/>
  <path d="M259.82,446.19a5.62,5.62,0,0,1-.26,3,4.08,4.08,0,0,1-1.34,1.46,7.7,7.7,0,0,1-4.55,1.42"/>
  <path d="M245,445.39c-.26,1.76.42,3.67-.32,5.29a9.41,9.41,0,0,1-1,1.56c-.52.74-1,1.62-1.9,1.83"/>
  <path d="M224.53,399.78c-.23-.8-1-1.31-1.51-2a6.59,6.59,0,0,1-.83-4.14,3.79,3.79,0,0,1,.34-1.77"/>
  <path d="M235,391.94c1.21-1.72,1.08-4,.91-6.09a2.34,2.34,0,0,0-.48-1.49"/>
  <path d="M237,415.25c.45-1.26,1.17-2.4,1.61-3.66a8.67,8.67,0,0,0,.25-4.76"/>
  <path d="M226.33,422.8a7.73,7.73,0,0,0,7.68,7.67"/>
  <path d="M248.57,432.44a7,7,0,0,0,.67-3.32A5.69,5.69,0,0,0,249,427a2.3,2.3,0,0,0-1.4-1.48"/>
  <path d="M262.22,439.39a28.42,28.42,0,0,0,7.65-.32"/>
  <path d="M276.66,418.43a32.2,32.2,0,0,0,.91-10.53"/>
  <path d="M302.28,414c1.15.33,2.25-.62,3-1.55a20.39,20.39,0,0,0,4.37-11.1"/>
  <path d="M309.62,448.33a8.34,8.34,0,0,0,3.05-3.75,17.19,17.19,0,0,0,1.55-9"/>
  <path d="M297.83,456.58a12.53,12.53,0,0,1-10.24-3.05,5.39,5.39,0,0,1-2-3.45"/>
  <path d="M271.61,489c-1.55.1-2.9-1.1-3.72-2.42a9.88,9.88,0,0,1-1.41-6.54"/>
  <path d="M271.25,463.48a2.68,2.68,0,0,1-3.05-.15,2.65,2.65,0,0,1-.8-2.94"/>
  <path d="M324.33,452.47a15.14,15.14,0,0,0,1.48-.5,5,5,0,0,0,2.42-2,3.2,3.2,0,0,0,.14-3.07"/>
  <path d="M323.45,436.57a16.8,16.8,0,0,0,4.72-7.78"/>
  <path d="M322.43,418.16c1.55.2,3.24.35,4.54-.5,1.59-1,2-3.14,2.27-5"/>
  <path d="M323.87,472.16a5.32,5.32,0,0,0,3,0,4.51,4.51,0,0,0,1.75-1.44,16.48,16.48,0,0,0,2.68-4.65"/>
  <path d="M324.78,485.94a4.14,4.14,0,0,0,4-2.59"/>
  <path d="M323.82,502.74a3.77,3.77,0,0,0,4-1.67,8.92,8.92,0,0,0,1.29-4.39"/>
  <path d="M304.37,495.28a3.88,3.88,0,0,0,3.29-2.63,10.73,10.73,0,0,0,.44-4.41"/>
  <path d="M286,500.54a12,12,0,0,1-2.64-8.06"/>
  <path d="M297.07,481.56a10.38,10.38,0,0,0,1.1-8"/>
  <path d="M284.25,471.58a2,2,0,0,1-2-1.06,5.83,5.83,0,0,1-.58-2.3l-.51-4.56"/>
  <path d="M295,434.89a4.8,4.8,0,0,1-5.09-5.88"/>
  <path class="cls-3" d="M351.26,347.87a3.91,3.91,0,0,0,4.25-3.86"/>
  <path class="cls-3" d="M347.35,379.93a5.54,5.54,0,0,0,2.85,1.91,3.27,3.27,0,0,0,3.19-.88"/>
</svg>
